<svg width="1440" height="975" viewBox="0 0 1440 975" fill="none" xmlns="http://www.w3.org/2000/svg">
<mask id="mask0_3_854" style="mask-type:alpha" maskUnits="userSpaceOnUse" x="0" y="0" width="1440" height="975">
<rect width="1440" height="975" fill="#245D51"/>
</mask>
<g mask="url(#mask0_3_854)">
<rect width="1440" height="975" fill="#245D51"/>
<mask id="mask1_3_854" style="mask-type:alpha" maskUnits="userSpaceOnUse" x="82" y="2" width="1513" height="975">
<rect x="345.5" y="2.5" width="111" height="973.007" stroke="white"/>
<rect x="232.5" y="2.5" width="113" height="973.007" stroke="white"/>
<rect x="155.5" y="2.5" width="77" height="973.007" stroke="white"/>
<rect x="82.5" y="2.5" width="73" height="973.007" stroke="white"/>
<rect x="82.5" y="2.5" width="756" height="71.4796" stroke="white"/>
<rect x="82.5" y="73.9873" width="756" height="75.4511" stroke="white"/>
<rect x="82.5" y="149.445" width="756" height="112.187" stroke="white"/>
<rect x="82.5" y="261.64" width="756" height="114.173" stroke="white"/>
<rect x="82.5" y="375.82" width="756" height="111.194" stroke="white"/>
<rect x="82.5" y="487.021" width="756" height="111.194" stroke="white"/>
<rect x="82.5" y="598.223" width="756" height="113.18" stroke="white"/>
<rect x="82.5" y="711.41" width="756" height="112.187" stroke="white"/>
<rect x="82.5" y="823.605" width="756" height="76.444" stroke="white"/>
<rect x="82.5" y="900.056" width="756" height="76.444" stroke="white"/>
<rect x="456.5" y="2.5" width="115" height="973.007" stroke="white"/>
<rect x="571.5" y="2.5" width="113" height="973.007" stroke="white"/>
<rect x="684.5" y="2.5" width="77" height="973.007" stroke="white"/>
<rect x="761.5" y="2.5" width="77" height="973.007" stroke="white"/>
<rect x="1101.5" y="2.5" width="111" height="973.007" stroke="white"/>
<rect x="988.5" y="2.5" width="113" height="973.007" stroke="white"/>
<rect x="911.5" y="2.5" width="77" height="973.007" stroke="white"/>
<rect x="838.5" y="2.5" width="73" height="973.007" stroke="white"/>
<rect x="838.5" y="2.5" width="756" height="71.4796" stroke="white"/>
<rect x="838.5" y="73.9873" width="756" height="75.4511" stroke="white"/>
<rect x="838.5" y="149.445" width="756" height="112.187" stroke="white"/>
<rect x="838.5" y="261.64" width="756" height="114.173" stroke="white"/>
<rect x="838.5" y="375.82" width="756" height="111.194" stroke="white"/>
<rect x="838.5" y="487.021" width="756" height="111.194" stroke="white"/>
<rect x="838.5" y="598.223" width="756" height="113.18" stroke="white"/>
<rect x="838.5" y="711.41" width="756" height="112.187" stroke="white"/>
<rect x="838.5" y="823.605" width="756" height="76.444" stroke="white"/>
<rect x="838.5" y="900.056" width="756" height="76.444" stroke="white"/>
<rect x="1212.5" y="2.5" width="115" height="973.007" stroke="white"/>
<rect x="1327.5" y="2.5" width="113" height="973.007" stroke="white"/>
</mask>
<g mask="url(#mask1_3_854)">
<rect x="82" y="2" width="1513" height="974" fill="url(#paint0_linear_3_854)" fill-opacity="0.2"/>
</g>
</g>
<defs>
<linearGradient id="paint0_linear_3_854" x1="1504" y1="489" x2="301" y2="577.5" gradientUnits="userSpaceOnUse">
<stop stop-color="white"/>
<stop offset="1" stop-color="white" stop-opacity="0"/>
</linearGradient>
</defs>
</svg>
