<svg viewBox="0 0 25 25" fill="none" xmlns="http://www.w3.org/2000/svg">
<path d="M0.333313 24.6666C0.333313 22.1913 1.31664 19.8173 3.06698 18.067C4.81732 16.3166 7.19129 15.3333 9.66665 15.3333C12.142 15.3333 14.516 16.3166 16.2663 18.067C18.0166 19.8173 19 22.1913 19 24.6666H16.6666C16.6666 22.8101 15.9291 21.0296 14.6164 19.7169C13.3036 18.4041 11.5232 17.6666 9.66665 17.6666C7.81013 17.6666 6.02965 18.4041 4.7169 19.7169C3.40414 21.0296 2.66665 22.8101 2.66665 24.6666H0.333313ZM9.66665 14.1666C5.79915 14.1666 2.66665 11.0341 2.66665 7.16663C2.66665 3.29913 5.79915 0.166626 9.66665 0.166626C13.5341 0.166626 16.6666 3.29913 16.6666 7.16663C16.6666 11.0341 13.5341 14.1666 9.66665 14.1666ZM9.66665 11.8333C12.245 11.8333 14.3333 9.74496 14.3333 7.16663C14.3333 4.58829 12.245 2.49996 9.66665 2.49996C7.08831 2.49996 4.99998 4.58829 4.99998 7.16663C4.99998 9.74496 7.08831 11.8333 9.66665 11.8333ZM19.3313 16.1535C20.9709 16.8919 22.3623 18.0881 23.3383 19.5983C24.3144 21.1085 24.8335 22.8685 24.8333 24.6666H22.5C22.5002 23.3179 22.111 21.9979 21.3789 20.8651C20.6469 19.7324 19.6032 18.8352 18.3735 18.2815L19.3301 16.1535H19.3313ZM18.5286 2.98179C19.7041 3.46631 20.7091 4.28909 21.4162 5.34573C22.1232 6.40237 22.5005 7.64524 22.5 8.91663C22.5005 10.5177 21.9023 12.0611 20.8229 13.2436C19.7436 14.4261 18.2611 15.1623 16.6666 15.3076V12.9591C17.5311 12.8353 18.3331 12.4376 18.9548 11.8245C19.5766 11.2113 19.9855 10.415 20.1213 9.55238C20.2572 8.68976 20.113 7.80631 19.7098 7.03171C19.3066 6.2571 18.6657 5.63216 17.8811 5.24863L18.5286 2.98179V2.98179Z" fill="#CB8461"/>
</svg>
