<svg width="175" height="28" viewBox="0 0 175 28" fill="none" xmlns="http://www.w3.org/2000/svg">
<g clip-path="url(#clip0_24_20)">
<path d="M87.9553 9.35439C88.0623 7.29814 88.7995 5.61782 89.9516 4.30694V2.56018H88.4204C85.3255 2.56018 82.7053 3.74629 81.1822 6.42638H81.0931V2.85509H73.1549V24.6345H81.0947V15.8424C81.0947 12.1106 82.1868 9.26527 86.5926 9.26527C87.0722 9.26851 87.5211 9.29606 87.9553 9.35439Z" fill="#C8C8C8"/>
<path d="M148.069 9.27503C148.729 7.35003 149.798 5.63568 151.189 4.25998V2.55859H149.661C146.564 2.55859 143.947 3.7447 142.416 6.42318H142.33V2.85512H134.387V24.6345H142.33V15.8424C142.33 12.1107 143.425 9.26531 147.831 9.26531L148.069 9.27503Z" fill="#C8C8C8"/>
<path d="M104.08 8.45831C102.855 7.8215 101.15 7.39696 99.7938 7.39696C98.8831 7.39696 97.3097 7.77613 97.3097 8.88284C97.3097 10.3703 99.7938 10.581 100.892 10.7981C104.593 11.5176 107.393 13.2173 107.393 17.2456C107.393 22.9752 102.025 25.3604 96.8285 25.3604C93.6412 25.3604 90.5058 24.4676 87.7965 22.8537L90.6759 17.4578C92.2882 18.5662 94.9942 19.6664 96.9581 19.6664C97.9627 19.6664 99.4454 19.2014 99.4454 18.012C99.4454 16.3139 96.9581 16.2247 94.4676 15.5896C91.9836 14.9528 89.4995 13.7666 89.4995 9.85993C89.4995 4.50946 94.4676 2.13562 99.3644 2.13562C101.895 2.13562 104.428 2.51641 106.735 3.53562L104.08 8.45831Z" fill="#C8C8C8"/>
<path d="M175 24.6345H167.06V22.212H166.973C165.576 24.3769 162.821 25.3523 160.208 25.3523C153.571 25.3523 148.906 19.9597 148.906 13.7181C148.906 7.48288 153.488 2.1308 160.119 2.1308C162.692 2.1308 165.401 3.06413 167.059 4.97293V2.8551H174.997L175 24.6345ZM157.109 13.7651C157.109 16.5229 158.989 18.6456 162.214 18.6456C165.441 18.6456 167.313 16.5262 167.313 13.7651C167.313 11.0898 165.441 8.84075 162.214 8.84075C158.989 8.84237 157.109 11.0898 157.109 13.7651Z" fill="#C8C8C8"/>
<path d="M133.135 15.0419H116.417C116.417 18.1805 118.123 19.8771 121.395 19.8771C123.096 19.8771 124.316 19.3278 125.191 17.8824H132.83C131.564 23.0206 126.544 25.3555 121.44 25.3555C114.027 25.3555 108.485 21.2771 108.485 13.7666C108.485 6.50738 113.585 2.13562 120.872 2.13562C128.638 2.13562 133.138 6.80715 133.138 14.2333L133.135 15.0419ZM125.759 10.581C125.365 8.50044 123.401 7.14256 121.265 7.14256C118.95 7.14256 117.038 8.32706 116.55 10.581H125.759Z" fill="#C8C8C8"/>
<path d="M47.8998 13.3859C47.8917 13.1979 47.8787 13.0148 47.8641 12.8285C47.8641 12.8285 47.8641 12.8268 47.8641 12.8252C47.8641 12.8252 47.8641 12.8236 47.8641 12.822C47.6859 10.8014 47.0183 8.91041 45.8857 7.20254C45.3801 6.44096 44.8016 5.74906 44.1551 5.12846C43.2104 4.21943 42.1167 3.46758 40.8836 2.87291C39.0282 1.98656 36.9785 1.53934 34.791 1.53934C34.5771 1.53934 34.3535 1.54258 34.1282 1.55068C32.5921 1.62036 31.1063 1.91203 29.7095 2.42568C28.3014 2.93448 27.0748 3.60693 26.0718 4.41388C25.8676 4.57591 25.6456 4.77522 25.4074 4.99397L25.2357 5.16249L25.0007 5.41203H25.0023H25.0039L24.8938 5.52059L24.8403 5.57892L24.56 5.87383C24.3525 6.10716 24.1549 6.3405 23.9701 6.56897L23.9685 6.56573L23.962 6.55925C23.578 7.02591 23.2231 7.50879 22.9623 7.94304C22.7856 8.22175 22.6123 8.50855 22.447 8.79536L20.1574 13.4248L20.1607 13.428L20.0407 13.663L19.788 14.175C19.2856 15.191 18.7477 16.2037 18.1465 17.0398C16.8065 18.5095 15.2914 19.2289 13.3438 19.2289C13.2076 19.2289 13.0683 19.2224 12.9257 19.2143C11.7525 19.1673 10.7463 18.8903 9.85347 18.362C9.75787 18.3053 9.66551 18.247 9.57639 18.187C8.84722 17.7025 8.2882 17.0803 7.87014 16.3042C7.39861 15.4243 7.18958 14.525 7.21875 13.5722C7.22037 13.5463 7.22199 13.5236 7.22199 13.5025C7.28519 11.9859 7.86366 10.8062 9.02871 9.78703C9.31227 9.54235 9.6088 9.33494 9.91829 9.15022C9.96204 9.12429 10.0058 9.09999 10.0495 9.0773C10.9148 8.60578 11.9 8.37082 13.0294 8.37082L13.381 8.38054C15.1748 8.4486 16.5586 9.00925 17.662 10.103L21.1232 3.88888C20.2951 3.33471 19.3602 2.85832 18.3296 2.47105C18.2907 2.45647 18.2502 2.44027 18.2097 2.4273C18.0866 2.38355 17.965 2.33818 17.8387 2.29767C16.7433 1.93147 15.5944 1.70624 14.4116 1.60415C14.3824 1.59929 14.35 1.59605 14.3208 1.59281C14.1394 1.58147 13.9546 1.55878 13.7731 1.55068C13.5755 1.54258 13.3762 1.53934 13.1817 1.53772H13.0699C10.8938 1.54582 8.87153 1.99142 7.02269 2.87453C4.95185 3.87267 3.27315 5.32615 2.02871 7.19929C0.787502 9.07244 0.110187 11.1514 0.0129647 13.3826C0.00486284 13.5738 1.72871e-06 13.7634 1.72871e-06 13.9498C-0.00161864 17.0706 1.13588 19.8155 3.39792 22.1197C5.7588 24.5373 8.8294 25.84 12.5157 25.994C12.7523 26.0037 12.9856 26.0102 13.219 26.0102C15.3044 26.0102 17.2343 25.6391 18.9648 24.897C19.3975 24.7123 19.8171 24.4951 20.2465 24.2537C20.4799 24.1192 20.7002 23.9766 20.919 23.8243L21.081 23.7157L21.3532 23.5294C21.6806 23.2944 21.9868 23.04 22.285 22.7694L22.3887 22.6706C22.5637 22.5037 22.7387 22.3352 22.9039 22.1618L23.5245 21.4602L23.7611 21.1636L23.8713 21.0016L23.9815 20.8428C24.9035 19.2937 27.9044 13.6565 27.9044 13.6565V13.6451L28.0826 13.3016L28.2317 13.0326C28.6741 12.2273 28.9933 11.6553 29.4162 11.0542L29.4275 11.0363C30.4144 9.60554 32.1109 8.58633 34.1104 8.41457C37.4646 8.12615 40.4039 10.3299 40.6745 13.3373C40.9435 16.3447 38.4417 19.0167 35.0875 19.3067C34.3891 19.3667 33.7102 19.3197 33.0701 19.1787L33.0539 19.1852C30.5926 18.6731 29.0257 16.8778 28.2528 16.0757L25.025 22.0111C25.025 22.0111 26.028 23.0222 26.715 23.5278C27.4037 24.0317 28.2933 24.5275 29.003 24.8354C30.7255 25.5711 32.5986 26.0118 34.6678 26.0118C34.9076 26.0118 34.859 26.0118 35.1086 26.0021C38.7917 25.8481 42.0745 24.4368 44.4419 22.0192C46.6845 19.7231 47.9014 17.1014 47.9127 13.9984V13.906C47.9111 13.7342 47.9063 13.5609 47.8998 13.3859Z" fill="#C8C8C8"/>
<path d="M60.247 25.3701C58.5731 25.3701 57.0549 25.1757 55.6921 24.7868C54.3294 24.3979 53.166 23.7838 52.2019 22.9412C51.2345 22.0986 50.4891 21.0259 49.9641 19.7248C49.4391 18.4236 49.1766 16.8551 49.1766 15.0273V2.85022H56.8361V14.9301C56.8361 16.2993 57.1634 17.291 57.8164 17.9099C58.4711 18.5305 59.3023 18.84 60.3102 18.84C61.3407 18.84 62.1769 18.5516 62.8218 17.9731C63.4634 17.3947 63.7875 16.4354 63.7875 15.0873V2.85022H71.447V14.8669C71.447 16.7595 71.178 18.3685 70.6417 19.6924C70.1053 21.0178 69.3486 22.1002 68.3748 22.9428C67.3961 23.7854 66.2181 24.3979 64.8326 24.7884C63.4472 25.1757 61.9192 25.3701 60.247 25.3701Z" fill="#C8C8C8"/>
</g>
<defs>
<clipPath id="clip0_24_20">
<rect width="175" height="27.5463" fill="white"/>
</clipPath>
</defs>
</svg>
