<svg width="175" height="41" viewBox="0 0 175 41" fill="none" xmlns="http://www.w3.org/2000/svg">
<g clip-path="url(#clip0_24_12)">
<path d="M152.029 20.4167C152.029 13.9596 156.969 9.40889 163.514 9.40889C170.06 9.40889 175 13.9596 175 20.4167C175 26.7508 170.06 31.4244 163.514 31.4244C156.969 31.4244 152.029 26.8122 152.029 20.4167ZM168.516 20.4167C168.516 17.4034 166.602 15.1895 163.576 15.1895C160.55 15.1895 158.636 17.4034 158.636 20.4167C158.636 23.43 160.55 25.6438 163.576 25.6438C166.602 25.6438 168.516 23.4915 168.516 20.4167ZM147.706 15.3125C148.139 16.1734 148.324 17.0959 148.324 18.0798C148.324 20.4167 147.089 22.569 145.113 24.2294C147.83 25.5208 149.435 28.6571 149.435 31.6089C149.435 37.1436 144.928 40.8333 138.073 40.8333C131.219 40.8333 126.711 37.2051 126.711 31.6089C126.711 28.5956 128.317 25.5823 131.034 24.2294C128.996 22.569 127.823 20.4167 127.823 18.0798C127.823 13.2216 131.651 9.65487 137.703 9.65487C141.284 9.65487 142.334 10.2698 144.372 10.2698C145.73 10.2698 146.657 10.0853 148.324 9.2244C148.88 8.91692 149.312 8.79393 149.682 8.79393C150.485 8.79393 150.917 9.59337 150.917 10.5773C150.979 12.7297 149.991 14.5131 147.706 15.3125ZM143.075 31.4244C143.075 28.9646 141.161 27.2427 138.135 27.2427C135.109 27.2427 133.195 28.9031 133.195 31.4244C133.195 33.7613 135.295 35.6062 138.135 35.6062C140.914 35.6062 143.075 33.7613 143.075 31.4244ZM134.121 18.4488C134.121 20.5397 135.912 22.2 138.073 22.2C140.296 22.2 142.025 20.5397 142.025 18.4488C142.025 16.2349 140.42 14.6975 138.073 14.6975C135.789 14.6975 134.121 16.1734 134.121 18.4488ZM123.747 20.8471V28.5341C123.747 30.01 123.192 30.625 121.586 30.625H119.425C117.819 30.625 117.264 30.01 117.264 28.5341V21.0316C117.264 19.1253 116.955 17.7723 116.276 16.9114C115.535 15.989 114.423 15.497 113.003 15.497C111.644 15.497 110.409 15.989 109.607 16.9114C108.866 17.7723 108.372 19.1252 108.372 20.9701V28.4726C108.372 30.01 107.754 30.5635 106.21 30.5635H104.049C102.567 30.5635 101.888 30.01 101.888 28.4726V11.2538C101.888 10.2698 102.382 9.83936 103.123 9.83936C104.234 9.83936 105.778 10.7618 106.951 12.5452C108.68 10.5158 111.336 9.47038 113.929 9.47038C117.078 9.47038 119.61 10.5773 121.277 12.4222C122.945 14.3286 123.747 16.7884 123.747 20.8471ZM90.0318 3.50527C90.0318 1.5374 91.6373 0 93.7368 0C95.7128 0 97.4418 1.5374 97.4418 3.50527C97.4418 5.41165 95.7128 7.01054 93.7368 7.01054C91.6373 7.01054 90.0318 5.41165 90.0318 3.50527ZM90.464 28.5341V12.3607C90.464 10.8848 91.0198 10.2698 92.6253 10.2698H94.7865C96.392 10.2698 96.9478 10.8848 96.9478 12.3607V28.5341C96.9478 30.01 96.392 30.625 94.7865 30.625H92.6253C91.0198 30.625 90.464 30.01 90.464 28.5341ZM79.0402 28.5341V8.24046C79.0402 3.13629 81.9425 0.245984 84.289 0.245984C85.03 0.245984 85.524 0.737952 85.524 1.66039V28.4726C85.524 30.01 84.9065 30.5635 83.3627 30.5635H81.2015C79.7195 30.625 79.0402 30.0715 79.0402 28.5341ZM52.3642 20.4167C52.3642 13.9596 57.3042 9.40889 63.8497 9.40889C70.3952 9.40889 75.3352 13.9596 75.3352 20.4167C75.3352 26.7508 70.3952 31.4244 63.8497 31.4244C57.3042 31.4244 52.3642 26.8122 52.3642 20.4167ZM68.7897 20.4167C68.7897 17.4034 66.8754 15.1895 63.8497 15.1895C60.8239 15.1895 58.9097 17.4034 58.9097 20.4167C58.9097 23.43 60.8239 25.6438 63.8497 25.6438C66.8754 25.6438 68.7897 23.4915 68.7897 20.4167ZM49.0296 12.3607V29.5796C49.0296 30.5635 48.5356 30.994 47.7946 30.994C46.6831 30.994 45.1394 30.0715 44.0279 28.3496C42.4224 30.256 39.9524 31.3629 37.1736 31.3629C34.3948 31.3629 32.1718 30.379 30.5046 28.9031C28.5903 27.0582 27.5406 24.2294 27.5406 20.1707V12.3607C27.5406 10.8848 28.0963 10.2698 29.7018 10.2698H31.8631C33.4686 10.2698 34.0243 10.8848 34.0243 12.3607V19.6172C34.0243 22.0771 34.4566 23.3685 35.2593 24.2294C35.9386 24.9674 36.9266 25.3363 38.1616 25.3363C39.3966 25.3363 40.5699 24.8444 41.2491 24.0449C42.0519 23.184 42.4841 21.8311 42.4841 19.7402V12.3607C42.4841 10.8233 43.1016 10.2698 44.6454 10.2698H46.8066C48.3504 10.2083 49.0296 10.8233 49.0296 12.3607ZM23.0946 1.66039V29.5796C23.0946 30.5635 22.6006 30.994 21.8596 30.994C20.7481 30.994 19.2043 30.0715 18.0928 28.4111C16.7343 30.01 13.9555 31.4244 10.7445 31.4244C4.32251 31.4244 0 26.7508 0 20.4167C0 14.2056 4.38426 9.40889 10.7445 9.40889C13.091 9.40889 15.1288 10.1468 16.6725 11.1923V8.24046C16.6725 3.13629 19.5748 0.245984 21.9213 0.245984C22.6623 0.245984 23.0946 0.737952 23.0946 1.66039ZM16.6725 20.4167C16.6725 17.2804 14.4495 15.1895 11.6708 15.1895C8.83028 15.1895 6.60727 17.2804 6.60727 20.4167C6.60727 23.553 8.83028 25.6438 11.6708 25.6438C14.4495 25.6438 16.6725 23.6145 16.6725 20.4167Z" fill="#C8C8C8"/>
</g>
<defs>
<clipPath id="clip0_24_12">
<rect width="175" height="40.8333" fill="white"/>
</clipPath>
</defs>
</svg>
