<svg width="48" height="48" viewBox="0 0 48 48" fill="none" xmlns="http://www.w3.org/2000/svg">
<path d="M0 6.4C0 4.15979 0 3.03969 0.435974 2.18404C0.819467 1.43139 1.43139 0.819467 2.18404 0.435974C3.03969 0 4.15979 0 6.4 0H41.6C43.8402 0 44.9603 0 45.816 0.435974C46.5686 0.819467 47.1805 1.43139 47.564 2.18404C48 3.03969 48 4.15979 48 6.4V41.6C48 43.8402 48 44.9603 47.564 45.816C47.1805 46.5686 46.5686 47.1805 45.816 47.564C44.9603 48 43.8402 48 41.6 48H6.4C4.15979 48 3.03969 48 2.18404 47.564C1.43139 47.1805 0.819467 46.5686 0.435974 45.816C0 44.9603 0 43.8402 0 41.6V6.4Z" fill="#CB8461"/>
<path d="M24.2347 32.32C22.3787 32.32 20.7893 31.9467 19.4667 31.2C18.1653 30.432 17.184 29.4187 16.5227 28.16C15.8827 26.88 15.5627 25.4613 15.5627 23.904C15.5627 22.4107 15.872 21.0453 16.4907 19.808C17.1093 18.5707 18.0053 17.5893 19.1787 16.864C20.352 16.1173 21.7493 15.744 23.3707 15.744C24.864 15.744 26.1227 16.0533 27.1467 16.672C28.192 17.2907 28.9707 18.1227 29.4827 19.168C30.016 20.2133 30.2827 21.3867 30.2827 22.688C30.2827 23.328 30.1973 24.0533 30.0267 24.864H19.6907C19.904 26.272 20.4587 27.328 21.3547 28.032C22.2507 28.7147 23.328 29.056 24.5867 29.056C26.3147 29.056 27.9147 28.6187 29.3867 27.744L29.5787 31.104C28.896 31.4667 28.096 31.7653 27.1787 32C26.2827 32.2133 25.3013 32.32 24.2347 32.32ZM26.2507 22.176C26.2507 21.344 26.016 20.608 25.5467 19.968C25.0773 19.328 24.352 19.008 23.3707 19.008C22.3893 19.008 21.6 19.296 21.0027 19.872C20.4053 20.448 20 21.216 19.7867 22.176H26.2507Z" fill="white"/>
</svg>
