<svg width="55" height="55" viewBox="0 0 55 55" fill="none" xmlns="http://www.w3.org/2000/svg">
<circle cx="27.5" cy="27.5" r="24.5" fill="white"/>
<path d="M34.0837 2.92926C34.3785 1.82899 33.7264 0.689937 32.6071 0.478391C29.1232 -0.180077 25.5382 -0.159796 22.0502 0.545414C17.8871 1.38714 13.9755 3.18175 10.6221 5.78854C7.26879 8.39533 4.56485 11.7434 2.72231 15.5704C0.879775 19.3973 -0.0512689 23.599 0.00217726 27.846C0.0556234 32.0931 1.09211 36.27 3.03036 40.0494C4.96862 43.8287 7.75596 47.1077 11.1738 49.6293C14.5917 52.1509 18.5472 53.8465 22.7302 54.5832C26.2348 55.2004 29.8193 55.1305 33.2855 54.3845C34.3991 54.1449 35.0224 52.9898 34.6999 51.8973V51.8973C34.3775 50.8048 33.2315 50.1901 32.1148 50.4149C29.2629 50.9893 26.3226 51.0274 23.4457 50.5207C19.8901 49.8945 16.528 48.4533 13.6228 46.3099C10.7176 44.1666 8.34832 41.3794 6.70081 38.167C5.05329 34.9545 4.17228 31.4041 4.12685 27.7941C4.08142 24.1841 4.87281 20.6127 6.43896 17.3598C8.00512 14.1069 10.3035 11.261 13.1538 9.04526C16.0041 6.82949 19.329 5.30407 22.8677 4.5886C25.731 4.00969 28.6713 3.9738 31.5367 4.47619C32.6587 4.6729 33.7889 4.02954 34.0837 2.92926V2.92926Z" fill="#CB8461"/>
<g clip-path="url(#clip0_24_6)">
<path d="M31.3027 28.2426L25.1199 32.3645C25.076 32.3937 25.025 32.4105 24.9723 32.413C24.9196 32.4155 24.8672 32.4037 24.8207 32.3788C24.7742 32.3539 24.7353 32.3168 24.7082 32.2716C24.6811 32.2263 24.6667 32.1745 24.6667 32.1218V23.8781C24.6667 23.8254 24.6811 23.7736 24.7082 23.7284C24.7353 23.6831 24.7742 23.646 24.8207 23.6211C24.8672 23.5962 24.9196 23.5844 24.9723 23.5869C25.025 23.5895 25.076 23.6062 25.1199 23.6355L31.3027 27.7573C31.3426 27.7839 31.3754 27.82 31.398 27.8623C31.4207 27.9047 31.4325 27.9519 31.4325 28C31.4325 28.048 31.4207 28.0952 31.398 28.1376C31.3754 28.1799 31.3426 28.216 31.3027 28.2426V28.2426Z" fill="#2C2C2C"/>
</g>
<defs>
<clipPath id="clip0_24_6">
<rect width="14" height="14" fill="white" transform="translate(20 21)"/>
</clipPath>
</defs>
</svg>
