<svg width="24" height="24" viewBox="0 0 24 24" fill="none" xmlns="http://www.w3.org/2000/svg">
<path d="M20.2499 11.2501H3.74988C3.55097 11.2501 3.3602 11.3291 3.21955 11.4697C3.0789 11.6104 2.99988 11.8011 2.99988 12.0001C2.99988 12.199 3.0789 12.3897 3.21955 12.5304C3.3602 12.671 3.55097 12.7501 3.74988 12.7501H20.2499C20.4488 12.7501 20.6396 12.671 20.7802 12.5304C20.9209 12.3897 20.9999 12.199 20.9999 12.0001C20.9999 11.8011 20.9209 11.6104 20.7802 11.4697C20.6396 11.3291 20.4488 11.2501 20.2499 11.2501Z" fill="white"/>
<path d="M3.74988 6.75006H20.2499C20.4488 6.75006 20.6396 6.67104 20.7802 6.53039C20.9209 6.38974 20.9999 6.19897 20.9999 6.00006C20.9999 5.80115 20.9209 5.61038 20.7802 5.46973C20.6396 5.32908 20.4488 5.25006 20.2499 5.25006H3.74988C3.55097 5.25006 3.3602 5.32908 3.21955 5.46973C3.0789 5.61038 2.99988 5.80115 2.99988 6.00006C2.99988 6.19897 3.0789 6.38974 3.21955 6.53039C3.3602 6.67104 3.55097 6.75006 3.74988 6.75006V6.75006Z" fill="white"/>
<path d="M20.2499 17.2501H3.74988C3.55097 17.2501 3.3602 17.3291 3.21955 17.4697C3.0789 17.6104 2.99988 17.8011 2.99988 18.0001C2.99988 18.199 3.0789 18.3897 3.21955 18.5304C3.3602 18.671 3.55097 18.7501 3.74988 18.7501H20.2499C20.4488 18.7501 20.6396 18.671 20.7802 18.5304C20.9209 18.3897 20.9999 18.199 20.9999 18.0001C20.9999 17.8011 20.9209 17.6104 20.7802 17.4697C20.6396 17.3291 20.4488 17.2501 20.2499 17.2501Z" fill="white"/>
</svg>
