<svg width="175" height="39" viewBox="0 0 175 39" fill="none" xmlns="http://www.w3.org/2000/svg">
<path d="M37.2768 0.639038H0.655807V37.2591H37.2768V0.639038Z" fill="#BEBEBE"/>
<path d="M14.259 9.43585V28.4658L30.7372 18.9504L14.259 9.43585V9.43585ZM15.8366 12.1669L27.5819 18.9504L15.8366 25.7312V12.1669Z" fill="white"/>
<path d="M10.4682 11.5138L23.3492 18.9504L10.4682 26.387V11.5138ZM12.0458 14.2449V23.6569L20.1975 18.9504L12.0458 14.2449Z" fill="white"/>
<path d="M47.1987 13.9894H51.1106C53.4201 13.9894 54.8811 15.3081 54.8811 17.3074V17.3348C54.8811 19.5585 53.0957 20.7216 50.9135 20.7216H48.9425V23.9123H47.1987V13.9894V13.9894ZM50.9692 19.1475C52.2879 19.1475 53.1098 18.4122 53.1098 17.3763V17.3489C53.1098 16.1884 52.2746 15.5777 50.9692 15.5777H48.9425V19.1484H50.9692V19.1475V19.1475ZM59.2101 13.9894H60.9539V22.324H66.1739V23.9123H59.2101V13.9894ZM70.0884 19.7034V13.9894H71.8322V19.631C71.8322 21.4747 72.7823 22.4654 74.3423 22.4654C75.889 22.4654 76.8391 21.5295 76.8391 19.7034V13.9894H78.5821V19.6168C78.5821 22.5795 76.9081 24.067 74.3149 24.067C71.7323 24.067 70.0893 22.5795 70.0893 19.7034H70.0884ZM83.5192 13.9894H87.9419C89.1917 13.9894 90.1692 14.3589 90.8073 14.9802C91.3323 15.5194 91.6293 16.2582 91.6293 17.1209V17.1518C91.6293 18.7816 90.6518 19.7591 89.2606 20.156L91.9395 23.9123H89.8864L87.4487 20.4529H85.2639V23.9123H83.5201V13.9894H83.5192ZM87.8146 18.9098C89.0644 18.9098 89.8581 18.2566 89.8581 17.2481V17.2216C89.8581 16.1575 89.0918 15.5777 87.804 15.5777H85.263V18.9098H87.8146ZM99.8295 13.917H101.444L105.809 23.9123H103.969L102.961 21.5162H98.2678L97.2496 23.9114H95.4616L99.8287 13.917H99.8295V13.917ZM102.322 19.9695L100.609 16.0019L98.9068 19.9695H102.322ZM110.056 13.9894H111.795V22.324H117.016V23.9123H110.056V13.9894ZM120.706 22.4654L121.756 21.2192C122.705 22.0412 123.654 22.507 124.887 22.507C125.965 22.507 126.644 22.0129 126.644 21.2608V21.2325C126.644 20.5219 126.247 20.1418 124.407 19.7176C122.295 19.2058 121.104 18.581 121.104 16.755V16.724C121.104 15.0218 122.522 13.848 124.49 13.848C125.936 13.848 127.083 14.2864 128.091 15.0942L127.155 16.4129C126.264 15.7465 125.37 15.3947 124.462 15.3947C123.44 15.3947 122.846 15.9162 122.846 16.5685V16.5959C122.846 17.363 123.299 17.7042 125.201 18.1567C127.297 18.6676 128.388 19.4171 128.388 21.0637V21.0911C128.388 22.9489 126.927 24.0537 124.846 24.0537C123.33 24.0537 121.897 23.5287 120.706 22.4654V22.4654ZM133.09 13.9894H134.834V23.9123H133.09V13.9894ZM139.592 18.9787V18.9504C139.592 16.1716 141.718 13.8206 144.708 13.8206C146.438 13.8206 147.501 14.3005 148.523 15.1667L147.415 16.4819C146.652 15.8331 145.899 15.4186 144.636 15.4186C142.809 15.4186 141.418 17.0245 141.418 18.923V18.9504C141.418 20.9912 142.764 22.4964 144.79 22.4964C145.73 22.4964 146.579 22.1959 147.186 21.7442V19.8864H144.65V18.3671H148.875V22.5379C147.898 23.3731 146.493 24.0811 144.736 24.0811C141.632 24.0811 139.592 21.8715 139.592 18.9787V18.9787ZM153.684 13.9894H155.431V18.1152H160.165V13.9894H161.908V23.9123H160.165V19.7317H155.431V23.9123H153.684V13.9894Z" fill="#C8C8C8"/>
<path d="M166.292 13.9894V15.6051H169.442V23.9123H171.199V15.6051H174.344V13.9894H166.292Z" fill="#C8C8C8"/>
</svg>
