<svg width="28" height="28" viewBox="0 0 28 28" fill="none" xmlns="http://www.w3.org/2000/svg">
<path d="M2.33331 4.6585C2.33545 4.35211 2.45803 4.05885 2.67458 3.84209C2.89113 3.62532 3.18426 3.50244 3.49065 3.5H24.5093C25.1486 3.5 25.6666 4.01917 25.6666 4.6585V23.3415C25.6645 23.6479 25.5419 23.9411 25.3254 24.1579C25.1088 24.3747 24.8157 24.4976 24.5093 24.5H3.49065C3.1836 24.4997 2.88923 24.3775 2.67222 24.1603C2.45521 23.943 2.33331 23.6486 2.33331 23.3415V4.6585ZM9.33331 5.83333V22.1667H18.6666V5.83333H9.33331ZM4.66665 5.83333V8.16667H6.99998V5.83333H4.66665ZM21 5.83333V8.16667H23.3333V5.83333H21ZM4.66665 10.5V12.8333H6.99998V10.5H4.66665ZM21 10.5V12.8333H23.3333V10.5H21ZM4.66665 15.1667V17.5H6.99998V15.1667H4.66665ZM21 15.1667V17.5H23.3333V15.1667H21ZM4.66665 19.8333V22.1667H6.99998V19.8333H4.66665ZM21 19.8333V22.1667H23.3333V19.8333H21Z" fill="#CB8461"/>
</svg>
