<svg width="224" height="293" viewBox="0 0 224 293" fill="none" xmlns="http://www.w3.org/2000/svg">
<circle r="55" transform="matrix(-1 0 0 1 168.5 238)" fill="#14463A"/>
<rect x="56" y="293" width="56" height="112" transform="rotate(180 56 293)" fill="#CB8461"/>
<rect x="112" y="293" width="56" height="55" transform="rotate(180 112 293)" fill="#F2E7DB"/>
<path d="M111.961 68.9403C111.901 83.5825 108.958 98.0696 103.3 111.574C97.642 125.079 89.3801 137.337 78.9858 147.648C68.5915 157.959 56.2684 166.122 42.7201 171.669C29.1717 177.217 14.6635 180.042 0.0237808 179.982L0.480713 68.4826L111.961 68.9403Z" fill="#347366"/>
<circle r="12" transform="matrix(-1 0 0 1 56 12)" fill="#CB8461"/>
</svg>
